<svg xmlns="http://www.w3.org/2000/svg" viewBox="0 0 64 64">
  <defs>
    <linearGradient id="mmb" x1="0" y1="0" x2="1" y2="1">
      <stop offset="0" stop-color="#059669"/>
      <stop offset="1" stop-color="#14b8a6"/>
    </linearGradient>
  </defs>
  <rect x="2" y="2" width="60" height="60" rx="15" fill="url(#mmb)"/>
  <rect x="2" y="2" width="60" height="60" rx="15" fill="#ffffff" opacity="0.06"/>
  <path d="M25 13c-2.2 3.2 2.2 5.2 0 8.4M33 11c-2.2 3.2 2.2 5.2 0 8.4M41 14c-2.2 3.2 2.2 5.2 0 8.4" stroke="#ffffff" stroke-width="3" stroke-linecap="round" fill="none" opacity="0.92"/>
  <rect x="13" y="26.5" width="38" height="5.5" rx="2.75" fill="#ffffff"/>
  <path d="M14 31h36c0 9.4-8 16.5-18 16.5S14 40.4 14 31z" fill="#ffffff"/>
  <path d="M20 36.5h24" stroke="#0d9488" stroke-width="2.4" stroke-linecap="round" opacity="0.55"/>
  <rect x="27" y="48" width="10" height="4" rx="2" fill="#ffffff" opacity="0.9"/>
</svg>
